<svg width="368" height="199" viewBox="0 0 368 199" fill="none" xmlns="http://www.w3.org/2000/svg">
<path d="M80.0801 171.986H30.917C11.5728 171.986 0 159.907 0 146.053C0 127.047 12.502 115.39 24.9194 114.207L26.8623 114.123C37.6748 114.123 49.501 122.908 49.501 138.873V140.394C46.3755 138.451 43.5034 137.606 40.8848 137.606C34.7183 137.606 30.5791 142.505 30.5791 148.081C30.5791 150.361 31.3394 152.811 32.9443 155.092C37.2524 160.92 46.1221 163.539 55.4985 164.637C56.7656 164.806 58.0327 164.891 59.2153 164.891C81.1782 164.891 90.1323 138.958 90.1323 108.041C90.1323 63.439 71.4639 8.61621 46.2065 7.01123L44.3481 6.92676C38.5195 6.92676 35.9009 9.37646 35.9009 18.0771V108.885C33.0288 107.872 29.9878 107.365 27.0312 107.365C19.4287 107.365 11.8262 110.49 5.99756 116.065V11.4883C5.99756 8.27832 5.32178 6.67334 2.95654 6.67334C1.01367 6.67334 0.0844727 4.98389 0.0844727 3.37891C0.0844727 1.68945 1.01367 0.0844727 2.95654 0.0844727H39.7866C93.8491 0.0844727 119.782 58.1172 119.782 106.773C119.782 141.83 106.267 171.986 80.0801 171.986ZM150.108 198.511H149.939C139.549 198.511 128.229 190.063 128.229 168.861C128.314 144.786 139.464 114.292 146.645 90.6392C153.656 67.3247 160.751 44.0103 167.847 20.6958C165.397 14.5293 162.441 9.12305 158.64 5.40625C157.71 4.39258 157.288 3.37891 157.288 2.53418C157.288 1.09814 158.302 0 159.569 0C160.414 0 161.343 0.422363 162.188 1.35156C173 12.502 188.543 14.6138 200.285 14.6138C202.65 14.6138 204.339 17.0635 204.339 19.0063C204.339 20.189 203.664 21.2026 202.143 21.2026C200.96 21.2026 200.623 22.3008 200.623 23.8213C200.623 26.3555 201.721 30.2412 202.396 32.6064L237.537 153.571C238.72 157.626 241.423 164.468 244.971 165.566C246.998 166.242 248.012 168.101 248.012 169.706C248.012 170.973 247.336 172.071 245.984 172.071C245.646 172.071 245.224 171.986 244.802 171.817C238.551 169.621 232.384 168.607 226.556 168.607C220.727 168.607 215.236 169.621 210.252 171.817C209.915 171.986 209.577 172.071 209.239 172.071C207.127 172.071 205.184 169.537 205.184 167.594C205.184 166.665 205.522 165.989 206.451 165.566C207.803 165.06 208.31 163.37 208.31 161.258C208.31 158.809 207.634 155.768 206.958 153.571L193.611 107.534C188.205 96.4678 179.167 90.8926 170.212 90.8926C161.934 90.8926 153.825 95.7075 148.841 105.76C146.476 116.065 144.617 127.723 144.617 137.859C144.617 145.884 145.8 152.98 148.672 157.964C151.544 162.863 155.683 164.975 159.991 164.975C164.13 164.975 168.354 162.948 171.733 159.484C173.253 163.624 174.014 167.932 174.014 172.071C174.014 186.093 165.397 198.342 150.108 198.511ZM188.881 91.3149L171.902 32.6064L171.226 30.4946L152.896 90.5547C158.133 86.3311 164.13 84.2192 170.212 84.2192C176.717 84.2192 183.306 86.5845 188.881 91.3149ZM306.298 171.986C276.395 171.648 247.336 156.021 247.336 129.412C247.505 107.787 259.5 92.2441 274.452 92.2441C278.337 92.2441 282.477 93.3423 286.616 95.623C292.951 99.0864 296.415 106.773 296.415 114.545C296.415 121.218 293.796 127.892 288.052 132.031C282.139 127.216 276.986 125.357 272.593 125.357C263.893 125.357 258.824 132.622 258.74 139.295C258.74 154.332 281.97 164.637 299.793 164.637C322.77 164.637 339.073 148.925 339.073 132.369C339.073 118.684 327.838 103.226 299.709 92.2441C265.413 78.8975 249.532 58.5396 249.532 40.2935C249.532 18.584 272.086 0 312.887 0H315.59C331.64 0.337891 355.292 7.51807 355.376 29.0586C355.376 42.7432 344.226 55.9209 332.738 55.9209C322.601 55.9209 314.83 46.1221 314.83 35.3096C314.83 30.4946 316.435 25.6797 319.898 21.625C321.081 24.7505 323.868 26.9468 327.585 26.9468C329.359 26.9468 331.217 26.5244 333.245 25.4263C336.286 23.8213 337.806 21.1182 337.806 18.3306C337.806 14.1914 334.681 9.96777 328.937 8.44727C324.375 7.26465 319.391 6.67334 314.323 6.67334C305.538 6.67334 296.415 8.44727 288.643 11.8262C278.844 15.9653 274.367 22.1318 274.367 28.8052C274.367 40.209 287.46 53.2178 309.508 60.9893C349.717 76.7012 367.118 102.127 367.118 124.682C366.865 150.53 342.959 171.986 306.298 171.986Z" fill="black"/>
</svg>
