<svg width="220" height="80" viewBox="0 0 220 80" fill="none" xmlns="http://www.w3.org/2000/svg">
<mask id="path-1-outside-1_85_31" maskUnits="userSpaceOnUse" x="0" y="0" width="220" height="80" fill="black">
<rect fill="white" width="220" height="80"/>
<path d="M1.259 78.309V1.316H36.602V11.788H47.074V22.141H57.784V57.603H47.074V68.075H36.602V78.309H1.259ZM15.301 63.553H33.032V53.2H43.623V26.544H33.032V16.191H15.301V63.553ZM81.7839 78.309V22.141H92.3749V11.788H102.847V1.316H117.127V11.788H127.599V22.141H138.309V78.309H124.148V57.603H95.8259V78.309H81.7839ZM95.8259 42.728H124.148V26.544H113.557V16.191H106.417V26.544H95.8259V42.728ZM172.9 78.309V68.075H162.309V53.2H176.351V63.553H204.673V47.131H172.9V36.897H162.309V11.788H172.9V1.316H208.124V11.788H218.834V26.544H204.673V16.191H176.351V32.494H208.124V42.728H218.834V68.075H208.124V78.309H172.9Z"/>
</mask>
<path d="M1.259 78.309V1.316H36.602V11.788H47.074V22.141H57.784V57.603H47.074V68.075H36.602V78.309H1.259ZM15.301 63.553H33.032V53.2H43.623V26.544H33.032V16.191H15.301V63.553ZM81.7839 78.309V22.141H92.3749V11.788H102.847V1.316H117.127V11.788H127.599V22.141H138.309V78.309H124.148V57.603H95.8259V78.309H81.7839ZM95.8259 42.728H124.148V26.544H113.557V16.191H106.417V26.544H95.8259V42.728ZM172.9 78.309V68.075H162.309V53.2H176.351V63.553H204.673V47.131H172.9V36.897H162.309V11.788H172.9V1.316H208.124V11.788H218.834V26.544H204.673V16.191H176.351V32.494H208.124V42.728H218.834V68.075H208.124V78.309H172.9Z" fill="black"/>
<path d="M1.259 78.309H0.259001V79.309H1.259V78.309ZM1.259 1.316V0.315996H0.259001V1.316H1.259ZM36.602 1.316H37.602V0.315996H36.602V1.316ZM36.602 11.788H35.602V12.788H36.602V11.788ZM47.074 11.788H48.074V10.788H47.074V11.788ZM47.074 22.141H46.074V23.141H47.074V22.141ZM57.784 22.141H58.784V21.141H57.784V22.141ZM57.784 57.603V58.603H58.784V57.603H57.784ZM47.074 57.603V56.603H46.074V57.603H47.074ZM47.074 68.075V69.075H48.074V68.075H47.074ZM36.602 68.075V67.075H35.602V68.075H36.602ZM36.602 78.309V79.309H37.602V78.309H36.602ZM15.301 63.553H14.301V64.553H15.301V63.553ZM33.032 63.553V64.553H34.032V63.553H33.032ZM33.032 53.2V52.2H32.032V53.2H33.032ZM43.623 53.2V54.2H44.623V53.2H43.623ZM43.623 26.544H44.623V25.544H43.623V26.544ZM33.032 26.544H32.032V27.544H33.032V26.544ZM33.032 16.191H34.032V15.191H33.032V16.191ZM15.301 16.191V15.191H14.301V16.191H15.301ZM1.259 78.309H2.259V1.316H1.259H0.259001V78.309H1.259ZM1.259 1.316V2.316H36.602V1.316V0.315996H1.259V1.316ZM36.602 1.316H35.602V11.788H36.602H37.602V1.316H36.602ZM36.602 11.788V12.788H47.074V11.788V10.788H36.602V11.788ZM47.074 11.788H46.074V22.141H47.074H48.074V11.788H47.074ZM47.074 22.141V23.141H57.784V22.141V21.141H47.074V22.141ZM57.784 22.141H56.784V57.603H57.784H58.784V22.141H57.784ZM57.784 57.603V56.603H47.074V57.603V58.603H57.784V57.603ZM47.074 57.603H46.074V68.075H47.074H48.074V57.603H47.074ZM47.074 68.075V67.075H36.602V68.075V69.075H47.074V68.075ZM36.602 68.075H35.602V78.309H36.602H37.602V68.075H36.602ZM36.602 78.309V77.309H1.259V78.309V79.309H36.602V78.309ZM15.301 63.553V64.553H33.032V63.553V62.553H15.301V63.553ZM33.032 63.553H34.032V53.2H33.032H32.032V63.553H33.032ZM33.032 53.2V54.2H43.623V53.2V52.2H33.032V53.2ZM43.623 53.2H44.623V26.544H43.623H42.623V53.2H43.623ZM43.623 26.544V25.544H33.032V26.544V27.544H43.623V26.544ZM33.032 26.544H34.032V16.191H33.032H32.032V26.544H33.032ZM33.032 16.191V15.191H15.301V16.191V17.191H33.032V16.191ZM15.301 16.191H14.301V63.553H15.301H16.301V16.191H15.301ZM81.7839 78.309H80.7839V79.309H81.7839V78.309ZM81.7839 22.141V21.141H80.7839V22.141H81.7839ZM92.3749 22.141V23.141H93.3749V22.141H92.3749ZM92.3749 11.788V10.788H91.3749V11.788H92.3749ZM102.847 11.788V12.788H103.847V11.788H102.847ZM102.847 1.316V0.315996H101.847V1.316H102.847ZM117.127 1.316H118.127V0.315996H117.127V1.316ZM117.127 11.788H116.127V12.788H117.127V11.788ZM127.599 11.788H128.599V10.788H127.599V11.788ZM127.599 22.141H126.599V23.141H127.599V22.141ZM138.309 22.141H139.309V21.141H138.309V22.141ZM138.309 78.309V79.309H139.309V78.309H138.309ZM124.148 78.309H123.148V79.309H124.148V78.309ZM124.148 57.603H125.148V56.603H124.148V57.603ZM95.8259 57.603V56.603H94.8259V57.603H95.8259ZM95.8259 78.309V79.309H96.8259V78.309H95.8259ZM95.8259 42.728H94.8259V43.728H95.8259V42.728ZM124.148 42.728V43.728H125.148V42.728H124.148ZM124.148 26.544H125.148V25.544H124.148V26.544ZM113.557 26.544H112.557V27.544H113.557V26.544ZM113.557 16.191H114.557V15.191H113.557V16.191ZM106.417 16.191V15.191H105.417V16.191H106.417ZM106.417 26.544V27.544H107.417V26.544H106.417ZM95.8259 26.544V25.544H94.8259V26.544H95.8259ZM81.7839 78.309H82.7839V22.141H81.7839H80.7839V78.309H81.7839ZM81.7839 22.141V23.141H92.3749V22.141V21.141H81.7839V22.141ZM92.3749 22.141H93.3749V11.788H92.3749H91.3749V22.141H92.3749ZM92.3749 11.788V12.788H102.847V11.788V10.788H92.3749V11.788ZM102.847 11.788H103.847V1.316H102.847H101.847V11.788H102.847ZM102.847 1.316V2.316H117.127V1.316V0.315996H102.847V1.316ZM117.127 1.316H116.127V11.788H117.127H118.127V1.316H117.127ZM117.127 11.788V12.788H127.599V11.788V10.788H117.127V11.788ZM127.599 11.788H126.599V22.141H127.599H128.599V11.788H127.599ZM127.599 22.141V23.141H138.309V22.141V21.141H127.599V22.141ZM138.309 22.141H137.309V78.309H138.309H139.309V22.141H138.309ZM138.309 78.309V77.309H124.148V78.309V79.309H138.309V78.309ZM124.148 78.309H125.148V57.603H124.148H123.148V78.309H124.148ZM124.148 57.603V56.603H95.8259V57.603V58.603H124.148V57.603ZM95.8259 57.603H94.8259V78.309H95.8259H96.8259V57.603H95.8259ZM95.8259 78.309V77.309H81.7839V78.309V79.309H95.8259V78.309ZM95.8259 42.728V43.728H124.148V42.728V41.728H95.8259V42.728ZM124.148 42.728H125.148V26.544H124.148H123.148V42.728H124.148ZM124.148 26.544V25.544H113.557V26.544V27.544H124.148V26.544ZM113.557 26.544H114.557V16.191H113.557H112.557V26.544H113.557ZM113.557 16.191V15.191H106.417V16.191V17.191H113.557V16.191ZM106.417 16.191H105.417V26.544H106.417H107.417V16.191H106.417ZM106.417 26.544V25.544H95.8259V26.544V27.544H106.417V26.544ZM95.8259 26.544H94.8259V42.728H95.8259H96.8259V26.544H95.8259ZM172.9 78.309H171.9V79.309H172.9V78.309ZM172.9 68.075H173.9V67.075H172.9V68.075ZM162.309 68.075H161.309V69.075H162.309V68.075ZM162.309 53.2V52.2H161.309V53.2H162.309ZM176.351 53.2H177.351V52.2H176.351V53.2ZM176.351 63.553H175.351V64.553H176.351V63.553ZM204.673 63.553V64.553H205.673V63.553H204.673ZM204.673 47.131H205.673V46.131H204.673V47.131ZM172.9 47.131H171.9V48.131H172.9V47.131ZM172.9 36.897H173.9V35.897H172.9V36.897ZM162.309 36.897H161.309V37.897H162.309V36.897ZM162.309 11.788V10.788H161.309V11.788H162.309ZM172.9 11.788V12.788H173.9V11.788H172.9ZM172.9 1.316V0.315996H171.9V1.316H172.9ZM208.124 1.316H209.124V0.315996H208.124V1.316ZM208.124 11.788H207.124V12.788H208.124V11.788ZM218.834 11.788H219.834V10.788H218.834V11.788ZM218.834 26.544V27.544H219.834V26.544H218.834ZM204.673 26.544H203.673V27.544H204.673V26.544ZM204.673 16.191H205.673V15.191H204.673V16.191ZM176.351 16.191V15.191H175.351V16.191H176.351ZM176.351 32.494H175.351V33.494H176.351V32.494ZM208.124 32.494H209.124V31.494H208.124V32.494ZM208.124 42.728H207.124V43.728H208.124V42.728ZM218.834 42.728H219.834V41.728H218.834V42.728ZM218.834 68.075V69.075H219.834V68.075H218.834ZM208.124 68.075V67.075H207.124V68.075H208.124ZM208.124 78.309V79.309H209.124V78.309H208.124ZM172.9 78.309H173.9V68.075H172.9H171.9V78.309H172.9ZM172.9 68.075V67.075H162.309V68.075V69.075H172.9V68.075ZM162.309 68.075H163.309V53.2H162.309H161.309V68.075H162.309ZM162.309 53.2V54.2H176.351V53.2V52.2H162.309V53.2ZM176.351 53.2H175.351V63.553H176.351H177.351V53.2H176.351ZM176.351 63.553V64.553H204.673V63.553V62.553H176.351V63.553ZM204.673 63.553H205.673V47.131H204.673H203.673V63.553H204.673ZM204.673 47.131V46.131H172.9V47.131V48.131H204.673V47.131ZM172.9 47.131H173.9V36.897H172.9H171.9V47.131H172.9ZM172.9 36.897V35.897H162.309V36.897V37.897H172.9V36.897ZM162.309 36.897H163.309V11.788H162.309H161.309V36.897H162.309ZM162.309 11.788V12.788H172.9V11.788V10.788H162.309V11.788ZM172.9 11.788H173.9V1.316H172.9H171.9V11.788H172.9ZM172.9 1.316V2.316H208.124V1.316V0.315996H172.9V1.316ZM208.124 1.316H207.124V11.788H208.124H209.124V1.316H208.124ZM208.124 11.788V12.788H218.834V11.788V10.788H208.124V11.788ZM218.834 11.788H217.834V26.544H218.834H219.834V11.788H218.834ZM218.834 26.544V25.544H204.673V26.544V27.544H218.834V26.544ZM204.673 26.544H205.673V16.191H204.673H203.673V26.544H204.673ZM204.673 16.191V15.191H176.351V16.191V17.191H204.673V16.191ZM176.351 16.191H175.351V32.494H176.351H177.351V16.191H176.351ZM176.351 32.494V33.494H208.124V32.494V31.494H176.351V32.494ZM208.124 32.494H207.124V42.728H208.124H209.124V32.494H208.124ZM208.124 42.728V43.728H218.834V42.728V41.728H208.124V42.728ZM218.834 42.728H217.834V68.075H218.834H219.834V42.728H218.834ZM218.834 68.075V67.075H208.124V68.075V69.075H218.834V68.075ZM208.124 68.075H207.124V78.309H208.124H209.124V68.075H208.124ZM208.124 78.309V77.309H172.9V78.309V79.309H208.124V78.309Z" fill="black" mask="url(#path-1-outside-1_85_31)"/>
</svg>
